<svg width="132" height="142" viewBox="0 0 132 142" fill="none" xmlns="http://www.w3.org/2000/svg">
<g clip-path="url(#clip0_1_2)">
<path d="M11 20.5C11 17.5 13.5 15 16.5 15H54.4C57.4 15 59.9 17.5 59.9 20.5V58.4C59.9 61.4 57.4 63.9 54.4 63.9H16.5C13.5 63.9 11 61.4 11 58.4V20.5ZM22.2 52.2H30.1L35.4 44.1L40.7 52.2H48.7L39.3 38.6L47.7 26.7H40L35.6 33.3L31.1 26.7H23.1L31.5 38.7L22.2 52.2ZM69.2 78.7C69.2 75.7 71.7 73.2 74.7 73.2H112.6C115.6 73.2 118.1 75.7 118.1 78.7V116.6C118.1 119.6 115.6 122.1 112.6 122.1H74.7C71.7 122.1 69.2 119.6 69.2 116.6V78.7ZM90 84.2V94H80.2V101.3H90V111.1H97.3V101.3H107.1V94H97.3V84.2H90ZM69.2 20.5C69.2 17.5 71.7 15 74.7 15H112.6C115.6 15 118.1 17.5 118.1 20.5V58.4C118.1 61.4 115.6 63.9 112.6 63.9H74.7C71.7 63.9 69.2 61.4 69.2 58.4V20.5ZM93.7 46.2C91.3 46.2 89.3 48.2 89.3 50.6C89.3 53 91.3 55 93.7 55C96.1 55 98.1 53 98.1 50.6C98 48.1 96.1 46.2 93.7 46.2ZM93.7 24C91.3 24 89.3 26 89.3 28.4C89.3 30.8 91.3 32.8 93.7 32.8C96.1 32.8 98.1 30.8 98.1 28.4C98.1 26 96.1 24 93.7 24ZM108.3 42.5V36.5H79.1V42.5H108.3ZM48.6 101.7V93.6H22.4V101.7H48.6ZM11 78.7C11 75.7 13.5 73.2 16.5 73.2H54.4C57.4 73.2 59.9 75.7 59.9 78.7V116.6C59.9 119.6 57.4 122.1 54.4 122.1H16.5C13.5 122.1 11 119.6 11 116.6V78.7Z" fill="white"/>
<rect x="53" y="15" width="23" height="107" fill="white"/>
<rect x="11" y="55" width="107" height="27" fill="white"/>
</g>
<defs>
<clipPath id="clip0_1_2">
<rect width="132" height="142" fill="white"/>
</clipPath>
</defs>
</svg>
