<svg xmlns="http://www.w3.org/2000/svg" xmlns:xlink="http://www.w3.org/1999/xlink" viewBox="0,0,256,256" width="30px" height="30px" fill-rule="nonzero"><g fill="none" fill-rule="nonzero" stroke="none" stroke-width="1" stroke-linecap="butt" stroke-linejoin="miter" stroke-miterlimit="10" stroke-dasharray="" stroke-dashoffset="0" font-family="none" font-weight="none" font-size="none" text-anchor="none" style="mix-blend-mode: normal"><g transform="scale(6.4,6.4)"><path d="M17.676,38.5l-1.125,-4.501l-0.284,-0.076c-2.458,-0.658 -4.696,-1.946 -6.473,-3.724l-0.208,-0.208l-4.445,1.271l-2.324,-4.025l3.335,-3.225l-0.076,-0.284c-0.335,-1.253 -0.505,-2.508 -0.505,-3.728c0,-1.22 0.17,-2.475 0.504,-3.729l0.076,-0.284l-3.335,-3.225l2.324,-4.025l4.445,1.271l0.208,-0.208c1.778,-1.779 4.016,-3.066 6.473,-3.724l0.284,-0.076l1.126,-4.5h4.647l1.125,4.501l0.284,0.076c2.457,0.657 4.695,1.945 6.473,3.724l0.208,0.208l4.445,-1.271l2.324,4.025l-3.335,3.225l0.076,0.284c0.335,1.253 0.505,2.507 0.505,3.728c0,1.22 -0.17,2.475 -0.504,3.729l-0.076,0.284l3.335,3.224l-2.324,4.026l-4.445,-1.272l-0.208,0.208c-1.777,1.779 -4.016,3.066 -6.473,3.724l-0.284,0.076l-1.125,4.501zM20,12.036c-4.392,0 -7.964,3.573 -7.964,7.964c0,4.391 3.573,7.964 7.964,7.964c4.391,0 7.964,-3.573 7.964,-7.964c0,-4.391 -3.572,-7.964 -7.964,-7.964z" fill="#a5a8b9"></path><path d="M21.933,2l0.959,3.837l0.143,0.571l0.569,0.152c2.372,0.635 4.532,1.878 6.248,3.594l0.416,0.417l0.566,-0.162l3.787,-1.083l1.934,3.349l-2.843,2.749l-0.423,0.409l0.152,0.568c0.324,1.211 0.488,2.422 0.488,3.599c0,1.177 -0.164,2.388 -0.488,3.599l-0.152,0.568l0.423,0.409l2.843,2.749l-1.934,3.349l-3.787,-1.083l-0.566,-0.162l-0.416,0.417c-1.715,1.716 -3.876,2.959 -6.248,3.594l-0.569,0.152l-0.143,0.571l-0.958,3.837h-3.867l-0.959,-3.837l-0.143,-0.571l-0.569,-0.152c-2.372,-0.635 -4.533,-1.878 -6.248,-3.594l-0.416,-0.417l-0.566,0.162l-3.787,1.083l-1.934,-3.349l2.843,-2.749l0.423,-0.409l-0.152,-0.568c-0.324,-1.211 -0.488,-2.422 -0.488,-3.599c0,-1.177 0.164,-2.388 0.488,-3.599l0.152,-0.568l-0.423,-0.409l-2.843,-2.749l1.934,-3.349l3.787,1.083l0.566,0.162l0.416,-0.417c1.715,-1.716 3.876,-2.959 6.248,-3.594l0.569,-0.152l0.143,-0.571l0.958,-3.837h3.867M20,28.464c4.667,0 8.464,-3.797 8.464,-8.464c0,-4.667 -3.797,-8.464 -8.464,-8.464c-4.667,0 -8.464,3.797 -8.464,8.464c0,4.667 3.797,8.464 8.464,8.464M22.714,1h-5.429l-1.149,4.594c-2.569,0.688 -4.871,2.027 -6.696,3.853l-4.537,-1.298l-2.714,4.701l3.405,3.292c-0.33,1.233 -0.523,2.522 -0.523,3.858c0,1.336 0.192,2.625 0.522,3.857l-3.405,3.292l2.714,4.701l4.538,-1.298c1.825,1.826 4.128,3.165 6.697,3.853l1.149,4.595h5.429l1.148,-4.594c2.569,-0.688 4.872,-2.027 6.697,-3.853l4.538,1.298l2.714,-4.701l-3.405,-3.292c0.329,-1.232 0.522,-2.521 0.522,-3.857c0,-1.336 -0.192,-2.625 -0.522,-3.857l3.405,-3.292l-2.714,-4.701l-4.538,1.298c-1.825,-1.826 -4.127,-3.165 -6.696,-3.853l-1.15,-4.596zM20,27.464c-4.122,0 -7.464,-3.342 -7.464,-7.464c0,-4.122 3.342,-7.464 7.464,-7.464c4.122,0 7.464,3.342 7.464,7.464c0,4.122 -3.342,7.464 -7.464,7.464z" fill="#a5a8b9"></path><g><path d="M20,30.5c-5.79,0 -10.5,-4.71 -10.5,-10.5c0,-5.79 4.71,-10.5 10.5,-10.5c5.79,0 10.5,4.71 10.5,10.5c0,5.79 -4.71,10.5 -10.5,10.5zM20,15.5c-2.481,0 -4.5,2.019 -4.5,4.5c0,2.481 2.019,4.5 4.5,4.5c2.481,0 4.5,-2.019 4.5,-4.5c0,-2.481 -2.019,-4.5 -4.5,-4.5z" fill="#4f5055"></path><path d="M20,10c5.514,0 10,4.486 10,10c0,5.514 -4.486,10 -10,10c-5.514,0 -10,-4.486 -10,-10c0,-5.514 4.486,-10 10,-10M20,25c2.757,0 5,-2.243 5,-5c0,-2.757 -2.243,-5 -5,-5c-2.757,0 -5,2.243 -5,5c0,2.757 2.243,5 5,5M20,9c-6.075,0 -11,4.925 -11,11c0,6.075 4.925,11 11,11c6.075,0 11,-4.925 11,-11c0,-6.075 -4.925,-11 -11,-11zM20,24c-2.209,0 -4,-1.791 -4,-4c0,-2.209 1.791,-4 4,-4c2.209,0 4,1.791 4,4c0,2.209 -1.791,4 -4,4z" fill="#a5a8b9"></path></g></g></g></svg>